{
  "asset" : {
    "generator" : "UE Viewer (umodel) build (unversioned)",
    "version" : "2.0"
  },
  "scene" : 0,
  "scenes" : [
    {
      "nodes" : [ 0 ]
    }
  ],
  "nodes" : [
    {
      "name" : "GN_Buddies_ChibiJett_Charm_Staticmesh",
      "mesh" : 0
    }
  ],
  "materials" : [
    {
      "name" : "Buddy_ChibiJett_MI",
      "pbrMetallicRoughness" : {
        "baseColorFactor" : [ 0.3, 0.3, 0.3, 1.0 ],
        "metallicFactor" : 0.1,
        "roughnessFactor" : 0.5
      }
    },
    {
      "name" : "Buddy_Anime_Plastic_MI",
      "pbrMetallicRoughness" : {
        "baseColorFactor" : [ 0.9, 0.3, 0.3, 1.0 ],
        "metallicFactor" : 0.1,
        "roughnessFactor" : 0.5
      }
    }
  ],
  "meshes" : [
    {
      "primitives" : [
        {
          "attributes" : {
            "POSITION" : 1,
            "NORMAL" : 2,
            "TANGENT" : 3,
            "TEXCOORD_0" : 4,
            "TEXCOORD_1" : 5
          },
          "indices" : 0,
          "material" : 0
        },
        {
          "attributes" : {
            "POSITION" : 7,
            "NORMAL" : 8,
            "TANGENT" : 9,
            "TEXCOORD_0" : 10,
            "TEXCOORD_1" : 11
          },
          "indices" : 6,
          "material" : 1
        }
      ],
      "name" : "GN_Buddies_ChibiJett_Charm_Staticmesh"
    }
  ],
  "buffers" : [
    {
      "uri" : "GN_Buddies_ChibiJett_Charm_Staticmesh.bin",
      "byteLength" : 109712
    }
  ],
  "bufferViews" : [
    {
      "buffer" : 0,
      "byteOffset" : 0,
      "byteLength" : 9644
    },
    {
      "buffer" : 0,
      "byteOffset" : 9644,
      "byteLength" : 14796
    },
    {
      "buffer" : 0,
      "byteOffset" : 24440,
      "byteLength" : 14796
    },
    {
      "buffer" : 0,
      "byteOffset" : 39236,
      "byteLength" : 19728
    },
    {
      "buffer" : 0,
      "byteOffset" : 58964,
      "byteLength" : 9864
    },
    {
      "buffer" : 0,
      "byteOffset" : 68828,
      "byteLength" : 9864
    },
    {
      "buffer" : 0,
      "byteOffset" : 78692,
      "byteLength" : 2796
    },
    {
      "buffer" : 0,
      "byteOffset" : 81488,
      "byteLength" : 6048
    },
    {
      "buffer" : 0,
      "byteOffset" : 87536,
      "byteLength" : 6048
    },
    {
      "buffer" : 0,
      "byteOffset" : 93584,
      "byteLength" : 8064
    },
    {
      "buffer" : 0,
      "byteOffset" : 101648,
      "byteLength" : 4032
    },
    {
      "buffer" : 0,
      "byteOffset" : 105680,
      "byteLength" : 4032
    }
  ],
  "accessors" : [
    {
      "bufferView" : 0,
      "componentType" : 5123,
      "count" : 4821,
      "type" : "SCALAR"
    },
    {
      "bufferView" : 1,
      "min" : [ -0.0107607, -0.0551713, -0.0156776 ],
      "max" : [ 0.0159847, -0.0151552, 0.00956679 ],
      "componentType" : 5126,
      "count" : 1233,
      "type" : "VEC3"
    },
    {
      "bufferView" : 2,
      "componentType" : 5126,
      "count" : 1233,
      "type" : "VEC3"
    },
    {
      "bufferView" : 3,
      "componentType" : 5126,
      "count" : 1233,
      "type" : "VEC4"
    },
    {
      "bufferView" : 4,
      "componentType" : 5126,
      "count" : 1233,
      "type" : "VEC2"
    },
    {
      "bufferView" : 5,
      "componentType" : 5126,
      "count" : 1233,
      "type" : "VEC2"
    },
    {
      "bufferView" : 6,
      "componentType" : 5123,
      "count" : 1398,
      "type" : "SCALAR"
    },
    {
      "bufferView" : 7,
      "min" : [ -0.00378829, -0.0425875, -0.0112808 ],
      "max" : [ 0.0141171, 0.00259494, 0.00197883 ],
      "componentType" : 5126,
      "count" : 504,
      "type" : "VEC3"
    },
    {
      "bufferView" : 8,
      "componentType" : 5126,
      "count" : 504,
      "type" : "VEC3"
    },
    {
      "bufferView" : 9,
      "componentType" : 5126,
      "count" : 504,
      "type" : "VEC4"
    },
    {
      "bufferView" : 10,
      "componentType" : 5126,
      "count" : 504,
      "type" : "VEC2"
    },
    {
      "bufferView" : 11,
      "componentType" : 5126,
      "count" : 504,
      "type" : "VEC2"
    }
  ]
}
